<?xml version="1.0" encoding="UTF-8"?>
<svg id="svg1" xmlns="http://www.w3.org/2000/svg" viewBox="0 0 835 140">
  <defs>
    <style>
      .cls-1 {
        fill: #2c6a7f;
      }
    </style>
  </defs>
  <g id="layer1">
    <g id="g1">
      <path id="path3" class="cls-1" d="M137.02,131.17c-13.7-1.78-21.57-7.71-25.73-19.42-2.66-7.48-4.04-22.25-3.26-34.76.75-11.93,2.04-17.8,5.46-24.78,5.73-11.71,17.97-17.26,36.2-16.42,11.13.52,18.14,3.05,23.61,8.52,7.17,7.18,9.82,16.16,10.26,34.76l.23,10.09h-45.56v7.62c0,10.55.73,13.27,4.2,15.61,5.78,3.89,11.96-.42,12.59-8.79.13-1.75.34-3.81.45-4.57l.21-1.38h27.25l-.3,3.5c-1.31,15.45-7.9,24.96-19.78,28.53-5.84,1.76-18.24,2.47-25.83,1.48h0ZM155.2,68.4c0-10.31-2.3-14.07-8.6-14.07-2.97,0-4.77.85-6.34,2.97-1.15,1.55-2.04,6.41-2.05,11.15v4.14h16.98v-4.19h0ZM307.04,131.15c-4.15-.52-10.09-2.28-13.14-3.89-3.55-1.88-8.15-6.57-10.08-10.28-4.46-8.59-6.57-24.08-5.51-40.35,1.04-16.02,4.06-24.98,10.67-31.69,2.64-2.68,3.88-3.57,7.22-5.16,6.77-3.22,13.79-4.41,23.57-3.98,11.49.5,18.33,2.98,24.01,8.72,6.99,7.06,9.58,16,10.06,34.76l.25,9.87h-45.57v7.77c0,11.21.93,14.03,5.31,16.06,2.27,1.05,4.31,1,6.6-.15,3.35-1.69,4.59-4.44,4.96-11.04l.24-4.14h27.49v.97c0,1.88-.89,8.2-1.54,10.93-.36,1.52-1.53,4.58-2.59,6.79-5.16,10.77-15.02,15.38-32.61,15.24-3.5-.03-7.71-.22-9.34-.42h0ZM325.51,68.45c-.01-4.73-.9-9.6-2.05-11.15-.43-.58-1.44-1.51-2.23-2.05-1.26-.86-1.85-.97-4.63-.85-3.72.17-5.05.91-6.36,3.55-1.19,2.4-1.71,5.58-1.71,10.45v4.19h16.99v-4.14h-.01ZM14.2,69.17V8.4l28.14.18c30.7.2,30.8.2,37.39,2.76,6.05,2.35,10.7,6.5,13.5,12.03,3.75,7.42,4.7,19.57,2.27,29-2.25,8.75-8.02,14.58-16.49,16.67-1.54.38-2.72.78-2.61.89s1.56.45,3.23.77c7.1,1.35,11.31,4.62,13.78,10.68,2.1,5.18,2.44,8.21,2.78,24.76.23,11.19.48,15.97.89,17.2.32.93,1.39,2.52,2.39,3.52,3.2,3.21,3.9,3.07-14.99,3.07h-16.8l-.65-1.55c-1.49-3.58-1.89-7.52-2.28-22.44-.48-18.85-1-21.2-5.19-23.58-1.65-.93-2.41-1.05-7.88-1.2l-6.05-.16v48.94H14.2v-60.76h0ZM58.58,58.71c3.58-1.91,5.82-5.36,6.59-10.17.86-5.33-.31-10.97-2.86-13.78-2.31-2.56-5.02-3.36-11.4-3.36h-5.29v28.54l5.63-.16c4.73-.13,5.9-.3,7.33-1.07h0ZM192.15,84.06v-45.87h29.71l.12,5.63.12,5.63,1.06-2.1c1.63-3.22,5.5-7.11,8.81-8.85,5.11-2.68,12.23-3.5,19.34-2.23,6.79,1.21,11.51,4.56,14.25,10.13,2.63,5.35,2.6,4.81,2.61,46.05v37.48h-30.12l-.12-32.81-.12-32.81-1.06-2.1c-1.55-3.07-2.83-3.84-6.37-3.84-2.28,0-3.17.19-4.08.88-1.84,1.37-2.67,2.76-3.13,5.23-.26,1.41-.43,14.41-.43,33.87v31.58h-30.58v-45.87h0ZM375,128.97c-.12-.53-4.23-20.74-9.13-44.91s-9.01-44.39-9.14-44.91l-.23-.96h29.28l.24,1.38c.13.76,1.87,15.51,3.85,32.79s3.7,31.5,3.81,31.61.27.12.34.02c.08-.1,2.13-14.89,4.57-32.88l4.42-32.7,16.24-.11,16.24-.11.21.96c.11.53,2.15,15.29,4.51,32.81,2.36,17.52,4.38,31.93,4.47,32.03s.24.1.33,0,1.84-14.8,3.88-32.67c2.05-17.87,3.85-32.64,4.01-32.81.16-.18,6.78-.27,14.72-.21l14.44.11-8.59,42.26c-4.72,23.24-8.92,43.84-9.32,45.76l-.73,3.5h-34.51l-4.61-32.38c-2.53-17.81-4.78-32.57-4.99-32.79-.23-.25-.38-.17-.38.21,0,.72-8.85,62.59-9.15,64l-.21.96h-34.37l-.22-.96h.02Z"/>
      <path id="path1" d="M479.25,129.61c-.01-.18,5.49-27.51,12.21-60.73l12.23-60.42,139.09.11,139.09.11,2.55,1.24c6.88,3.36,12.06,11.88,12.12,19.91.01,1.21-3.76,24.24-8.37,51.16l-8.38,48.95h-150.26c-82.65,0-150.27-.14-150.28-.32h0ZM537.87,113.73c10.28-1.48,18.65-7.6,23.32-17.05,1.97-3.98,4.28-11.56,5.32-17.41l.28-1.6-11.1.11-11.1.11-1.7,6.78c-2.41,9.63-4.33,13.04-7.74,13.81-1.75.39-4.34-.08-5.21-.94-.92-.92-1.34-4.78-.93-8.56.96-8.86,5.81-32.21,8.26-39.8,1.57-4.85,3.24-7.61,5.25-8.65,1.27-.66,4.48-.88,5.74-.39,2.05.79,2.46,5.4,1.08,12.05-.46,2.22-.84,4.27-.84,4.57,0,.41,2.48.53,11,.53h11.01l.44-2.04c.24-1.12.77-4.32,1.17-7.11.85-5.94.46-10.21-1.28-14.02-2.1-4.58-6.93-7.98-13.25-9.32-3.98-.84-13.31-.83-17.46.03-15.85,3.27-23.76,13.22-29.87,37.56-6.47,25.75-6.06,40.24,1.32,46.91,4.85,4.38,14.91,6.07,26.3,4.43h-.01ZM603.2,113.74c12.61-1.81,20.97-9.13,26.83-23.46,5.47-13.39,9.61-36.1,8.51-46.71-1.16-11.19-5.73-16.68-15.63-18.78-3.37-.72-12.85-.82-16.48-.17-16.27,2.88-25.2,13.84-31.11,38.2-6.05,24.88-5.62,38.64,1.4,45.67,5.07,5.07,14.58,6.96,26.48,5.25h0ZM597.28,98.6c-4.29-.57-4.37-6.59-.36-26.44,1.91-9.47,4.64-20.7,5.92-24.39,2-5.75,4.18-7.89,8.06-7.89,2.75,0,3.76.52,4.52,2.36,1.2,2.87.65,8.01-2.6,24.42-3.25,16.43-5.61,25.04-7.87,28.69-1.47,2.38-4.51,3.67-7.67,3.25h0ZM660.84,97.86c1.68-8.18,3.29-15.96,3.57-17.31l.51-2.44h4.03c4.92,0,6.3.57,6.93,2.87.68,2.46.57,3.47-1.47,13.64-1.95,9.69-2.45,15.67-1.47,17.5.42.78,1.01.82,12.33.82,13.18,0,13.4-.05,11.27-2.57-1.53-1.82-1.45-3.63.63-14.5,2.95-15.42,2.74-19.81-1.12-23.2-1.22-1.08-2.7-1.9-4.04-2.24-2.39-.61-2.31-.83.62-1.8,6.78-2.24,11.71-8.25,14.35-17.48.78-2.72.97-4.46.98-8.71,0-4.95-.07-5.47-1.17-7.7-1.3-2.65-3.97-5.35-6.63-6.71-3.97-2.03-5.84-2.17-27.31-2.05l-20.08.11-8.96,43.11c-4.93,23.71-8.89,43.25-8.79,43.43.09.18,5.25.27,11.46.21l11.3-.11,3.06-14.86h0ZM668.35,61.5c.11-.56,1.05-5.07,2.07-10.04l1.87-9.03h3.62c4.06,0,5.94.68,7.41,2.69.72.98.86,1.75.8,4.25-.15,5.38-2.34,9.47-6.22,11.58-1.81.99-2.84,1.23-5.97,1.38l-3.78.18.21-1.01h-.01ZM726.62,112.2c.22-.72,6.62-31.74,6.62-32.1,0-.1,3.39-.28,7.54-.4,5.83-.17,8.31-.42,10.94-1.12,6.85-1.83,12.81-5.51,16.48-10.17,7.44-9.47,10.15-25.13,5.82-33.61-2.01-3.94-6.99-7.44-12.08-8.49-1.36-.28-9.15-.4-21.26-.33l-19.11.11-8.96,43.11c-4.93,23.71-8.88,43.25-8.79,43.43s5.2.32,11.37.32c10.3,0,11.22-.06,11.43-.74h0ZM738.94,52.9l2.16-10.46h3.09c3.75,0,5.72.75,6.91,2.63.77,1.23.86,1.9.71,5.25-.14,3.11-.4,4.29-1.33,6.16-2.32,4.64-4.81,6.26-10.18,6.64l-3.51.25,2.16-10.46h0ZM801.62,15.04v-5.31h-2.12c-1.6,0-2.12-.16-2.12-.64,0-.53.83-.64,4.88-.64s4.88.11,4.88.64c0,.48-.52.64-2.12.64h-2.12v5.31c0,4.44-.1,5.31-.64,5.31s-.64-.87-.64-5.31ZM808.84,14.41c0-5.88.01-5.95.96-5.94.83,0,1.19.63,2.71,4.78.96,2.63,1.91,4.74,2.11,4.7s1.13-2.14,2.09-4.67c1.57-4.18,2.53-4.86,3.1-4.75.22.04.45.07.67.25.19.19.28.4.32.63l-.05,4.98c-.05,5.03-.1,5.97-.64,5.97s-.64-.8-.64-4.67c0-2.57-.14-4.67-.32-4.67s-1.08,2.11-2.02,4.69c-2.25,6.22-2.73,6.2-5.09-.15l-1.71-4.59-.12,4.7c-.1,3.79-.24,4.7-.74,4.7s-.62-1-.62-5.95h0Z"/>
    </g>
  </g>
</svg>